<svg width="24" height="24" viewBox="0 0 24 24" fill="none" xmlns="http://www.w3.org/2000/svg">
<g clip-path="url(#clip0_274_20)">
<path d="M6 5.667C6 4.69445 6.38634 3.76174 7.07404 3.07404C7.76174 2.38634 8.69445 2 9.667 2H18.333C19.3055 2 20.2383 2.38634 20.926 3.07404C21.6137 3.76174 22 4.69445 22 5.667V14.333C22 15.3055 21.6137 16.2383 20.926 16.926C20.2383 17.6137 19.3055 18 18.333 18H9.667C8.69445 18 7.76174 17.6137 7.07404 16.926C6.38634 16.2383 6 15.3055 6 14.333V5.667Z" fill="#FF3366"/>
<path d="M2 9.00004C2 7.90604 2.533 7.17204 3.514 6.62604C3.7458 6.49714 4.01931 6.46561 4.27436 6.53837C4.52941 6.61114 4.7451 6.78224 4.874 7.01404C5.0029 7.24584 5.03443 7.51935 4.96167 7.7744C4.8889 8.02944 4.7178 8.24514 4.486 8.37404C4.088 8.59504 4 8.71604 4 9.00004V19C4 19.548 4.452 20 5 20H14.998C15.318 20 15.616 19.846 15.803 19.593L15.868 19.493C15.933 19.3789 16.0198 19.2787 16.1236 19.1982C16.2273 19.1176 16.3459 19.0583 16.4725 19.0235C16.5992 18.9888 16.7315 18.9794 16.8618 18.9958C16.9921 19.0121 17.1179 19.054 17.232 19.119C17.3461 19.184 17.4463 19.2709 17.5269 19.3746C17.6074 19.4783 17.6668 19.5969 17.7015 19.7236C17.7362 19.8502 17.7457 19.9825 17.7293 20.1128C17.7129 20.2431 17.671 20.3689 17.606 20.483C17.3442 20.9434 16.9652 21.3263 16.5074 21.5927C16.0497 21.8592 15.5296 21.9997 15 22H5C3.348 22 2 20.652 2 19V9.00004Z" fill="#FF3366"/>
</g>
<defs>
<clipPath id="clip0_274_20">
<rect width="24" height="24" fill="white"/>
</clipPath>
</defs>
</svg>
